<svg width="40" height="41" viewBox="0 0 40 41" fill="none" xmlns="http://www.w3.org/2000/svg">
<rect x="0.7" y="1.5938" width="38.6" height="38.6" rx="19.3" fill="#F6F7F9"/>
<rect x="0.7" y="1.5938" width="38.6" height="38.6" rx="19.3" stroke="#1B1D22" stroke-width="1.4"/>
<path d="M11.2188 20.832C11.2277 21.1685 11.5022 21.4431 11.8343 21.4475L19.3128 21.4431L19.3128 28.926C19.3128 29.2537 19.5918 29.5415 19.9238 29.537C20.2648 29.5326 20.5393 29.2581 20.5349 28.926L20.5393 21.4475L28.0178 21.4431C28.3499 21.4475 28.6333 21.173 28.6289 20.832C28.6244 20.5 28.3455 20.221 28.0178 20.221L20.5349 20.221L20.5393 12.7425C20.5349 12.4104 20.2603 12.127 19.9238 12.127C19.5873 12.1359 19.3128 12.4104 19.3128 12.738L19.3128 20.221L11.8299 20.221C11.5022 20.221 11.2188 20.4955 11.2188 20.832Z" fill="#1B1D22"/>
</svg>
