<svg width="56" height="56" viewBox="0 0 56 56" fill="none" xmlns="http://www.w3.org/2000/svg">
<g clip-path="url(#clip0_347_6791)">
<g filter="url(#filter0_d_347_6791)">
<path d="M18 27.9952C18 28.4917 18.4215 28.904 18.918 28.904H26.9461V36.932C26.9461 37.4285 27.3583 37.8501 27.8548 37.8501C28.3606 37.8501 28.7729 37.4285 28.7729 36.932V28.904H36.8009C37.2974 28.904 37.719 28.4917 37.719 27.9952C37.719 27.4894 37.2974 27.0772 36.8009 27.0772H28.7729V19.0491C28.7729 18.5526 28.3606 18.1311 27.8548 18.1311C27.3583 18.1311 26.9461 18.5526 26.9461 19.0491V27.0772H18.918C18.4215 27.0772 18 27.4894 18 27.9952Z" fill="#E1E2E5"/>
</g>
</g>
<defs>
<filter id="filter0_d_347_6791" x="16" y="17.1311" width="23.7192" height="23.719" filterUnits="userSpaceOnUse" color-interpolation-filters="sRGB">
<feFlood flood-opacity="0" result="BackgroundImageFix"/>
<feColorMatrix in="SourceAlpha" type="matrix" values="0 0 0 0 0 0 0 0 0 0 0 0 0 0 0 0 0 0 127 0" result="hardAlpha"/>
<feOffset dy="1"/>
<feGaussianBlur stdDeviation="1"/>
<feComposite in2="hardAlpha" operator="out"/>
<feColorMatrix type="matrix" values="0 0 0 0 0 0 0 0 0 0 0 0 0 0 0 0 0 0 0.45 0"/>
<feBlend mode="normal" in2="BackgroundImageFix" result="effect1_dropShadow_347_6791"/>
<feBlend mode="normal" in="SourceGraphic" in2="effect1_dropShadow_347_6791" result="shape"/>
</filter>
<clipPath id="clip0_347_6791">
<rect width="20" height="19.7377" fill="white" transform="translate(18 18.1311)"/>
</clipPath>
</defs>
</svg>
