<svg width="57" height="56" viewBox="0 0 57 56" fill="none" xmlns="http://www.w3.org/2000/svg">
<rect x="1" y="0.5" width="55" height="55" rx="27.5" fill="#F6F7F9"/>
<rect x="1" y="0.5" width="55" height="55" rx="27.5" stroke="#1B1D22"/>
<g clip-path="url(#clip0_730_22649)">
<path d="M18.5 27.9952C18.5 28.4917 18.9215 28.904 19.418 28.904H27.4461V36.932C27.4461 37.4285 27.8583 37.8501 28.3548 37.8501C28.8606 37.8501 29.2729 37.4285 29.2729 36.932V28.904H37.3009C37.7974 28.904 38.219 28.4917 38.219 27.9952C38.219 27.4894 37.7974 27.0772 37.3009 27.0772H29.2729V19.0491C29.2729 18.5526 28.8606 18.1311 28.3548 18.1311C27.8583 18.1311 27.4461 18.5526 27.4461 19.0491V27.0772H19.418C18.9215 27.0772 18.5 27.4894 18.5 27.9952Z" fill="#1B1D22"/>
</g>
<defs>
<clipPath id="clip0_730_22649">
<rect width="20" height="19.7377" fill="white" transform="translate(18.5 18.1311)"/>
</clipPath>
</defs>
</svg>
