<svg width="77" height="77" viewBox="0 0 77 77" fill="none" xmlns="http://www.w3.org/2000/svg">
<path d="M5 17C5 10.3726 10.3726 5 17 5H65C71.6274 5 77 10.3726 77 17V65C77 71.6274 71.6274 77 65 77H17C10.3726 77 5 71.6274 5 65V17Z" fill="#1B1D22"/>
<path d="M0 12C0 5.37258 5.37258 0 12 0H60C66.6274 0 72 5.37258 72 12V60C72 66.6274 66.6274 72 60 72H12C5.37258 72 0 66.6274 0 60V12Z" fill="#4ECDC4"/>
<g clip-path="url(#clip0_26_1522)">
<path d="M24 35.3398C24 35.9609 24.5273 36.4766 25.1484 36.4766H35.1914V46.5195C35.1914 47.1406 35.707 47.668 36.3281 47.668C36.9609 47.668 37.4766 47.1406 37.4766 46.5195V36.4766H47.5195C48.1406 36.4766 48.668 35.9609 48.668 35.3398C48.668 34.707 48.1406 34.1914 47.5195 34.1914H37.4766V24.1484C37.4766 23.5273 36.9609 23 36.3281 23C35.707 23 35.1914 23.5273 35.1914 24.1484V34.1914H25.1484C24.5273 34.1914 24 34.707 24 35.3398Z" fill="#1B1D22"/>
</g>
<defs>
<clipPath id="clip0_26_1522">
<rect width="29.5312" height="29.2148" fill="white" transform="translate(24 23)"/>
</clipPath>
</defs>
</svg>
