<svg width="32" height="32" viewBox="0 0 32 32" fill="none" xmlns="http://www.w3.org/2000/svg">
<path d="M12.7609 25.0915C12.5076 25.0915 12.2542 24.9982 12.0542 24.7982L3.9609 16.7049C3.57423 16.3182 3.57423 15.6782 3.9609 15.2915L12.0542 7.1982C12.4409 6.81154 13.0809 6.81154 13.4676 7.1982C13.8542 7.58487 13.8542 8.22487 13.4676 8.61154L6.0809 15.9982L13.4676 23.3849C13.8542 23.7715 13.8542 24.4115 13.4676 24.7982C13.2809 24.9982 13.0142 25.0915 12.7609 25.0915Z" fill="#1B1D22"/>
<path d="M27.3336 17H4.89355C4.34689 17 3.89355 16.5467 3.89355 16C3.89355 15.4533 4.34689 15 4.89355 15H27.3336C27.8802 15 28.3336 15.4533 28.3336 16C28.3336 16.5467 27.8802 17 27.3336 17Z" fill="#1B1D22"/>
</svg>
