<svg width="57" height="56" viewBox="0 0 57 56" fill="none" xmlns="http://www.w3.org/2000/svg">
<rect x="1" y="0.5" width="55" height="55" rx="27.5" fill="#F6F7F9"/>
<rect x="1" y="0.5" width="55" height="55" rx="27.5" stroke="#1B1D22"/>
<path d="M19.7466 36.6305C20.0885 36.9549 20.632 36.9549 20.9651 36.6305L28.3641 29.2228L35.7719 36.6305C36.0962 36.9549 36.6573 36.9637 36.9817 36.6305C37.3148 36.2887 37.3148 35.7451 36.9817 35.4207L29.5826 28.013L36.9817 20.6053C37.3148 20.2809 37.3235 19.7286 36.9817 19.3955C36.6485 19.0711 36.0962 19.0711 35.7719 19.3955L28.3641 26.8032L20.9651 19.3955C20.632 19.0711 20.0797 19.0624 19.7466 19.3955C19.4222 19.7374 19.4222 20.2809 19.7466 20.6053L27.1543 28.013L19.7466 35.4207C19.4222 35.7451 19.4134 36.2974 19.7466 36.6305Z" fill="#1B1D22"/>
</svg>
