<svg width="48" height="48" viewBox="0 0 48 48" fill="none" xmlns="http://www.w3.org/2000/svg">
<path d="M4.27397 33.5898C4.65385 33.9502 5.25777 33.9502 5.62791 33.5898L13.849 25.359L22.0798 33.5898C22.4403 33.9502 23.0637 33.9599 23.4241 33.5898C23.7942 33.2099 23.7942 32.606 23.4241 32.2456L15.2029 24.0148L23.4241 15.7839C23.7942 15.4235 23.8039 14.8099 23.4241 14.4397C23.0539 14.0793 22.4403 14.0793 22.0798 14.4397L13.849 22.6706L5.62791 14.4397C5.25777 14.0793 4.64411 14.0696 4.27397 14.4397C3.91356 14.8196 3.91356 15.4235 4.27397 15.7839L12.5048 24.0148L4.27397 32.2456C3.91356 32.606 3.90382 33.2197 4.27397 33.5898Z" fill="#1B1D22"/>
</svg>
