<svg width="30" height="30" viewBox="0 0 30 30" fill="none" xmlns="http://www.w3.org/2000/svg">
<path d="M1.27734 9.81446C1.94531 9.81446 2.30859 9.42774 2.30859 8.75977V5.05664C2.30859 3.36914 3.19922 2.50196 4.83985 2.50196H8.61329C9.28125 2.50196 9.66796 2.12696 9.66796 1.4707C9.66796 0.802734 9.28125 0.427734 8.61329 0.427734H4.79296C1.76953 0.427734 0.234375 1.93946 0.234375 4.93946V8.75977C0.234375 9.42774 0.609375 9.81446 1.27734 9.81446ZM28.3711 9.81446C29.0508 9.81446 29.4141 9.42774 29.4141 8.75977V4.93946C29.4141 1.96289 27.8906 0.427734 24.8555 0.427734H21.0352C20.3672 0.427734 19.9805 0.802734 19.9805 1.4707C19.9805 2.12696 20.3672 2.50196 21.0352 2.50196H24.8086C26.4141 2.50196 27.3399 3.36914 27.3399 5.05664V8.75977C27.3399 9.42774 27.7149 9.81446 28.3711 9.81446ZM4.79296 29.6074H8.61329C9.28125 29.6074 9.66796 29.2324 9.66796 28.5645C9.66796 27.9082 9.28125 27.5332 8.61329 27.5332H4.83985C3.19922 27.5332 2.30859 26.666 2.30859 24.9785V21.2754C2.30859 20.6074 1.93359 20.2207 1.27734 20.2207C0.597656 20.2207 0.234375 20.6074 0.234375 21.2754V25.0957C0.234375 28.0957 1.76953 29.6074 4.79296 29.6074ZM21.0352 29.6074H24.8555C27.8906 29.6074 29.4141 28.0723 29.4141 25.0957V21.2754C29.4141 20.6074 29.0391 20.2207 28.3711 20.2207C27.7032 20.2207 27.3399 20.6074 27.3399 21.2754V24.9785C27.3399 26.666 26.4141 27.5332 24.8086 27.5332H21.0352C20.3672 27.5332 19.9805 27.9082 19.9805 28.5645C19.9805 29.2324 20.3672 29.6074 21.0352 29.6074Z" fill="#1B1D22"/>
<path d="M7.99219 21.8379H21.668C23.1914 21.8379 23.9883 21.0645 23.9883 19.541V11.4903C23.9883 9.95508 23.1914 9.18164 21.668 9.18164H19.6055C19.0078 9.18164 18.8321 9.08789 18.4571 8.67774L17.8242 7.97461C17.4258 7.55274 17.0742 7.35352 16.2891 7.35352H13.2656C12.5039 7.35352 12.1289 7.54102 11.7305 7.97461L11.0977 8.67774C10.7344 9.07617 10.5586 9.18164 9.94921 9.18164H7.99219C6.45704 9.18164 5.67188 9.95508 5.67188 11.4903V19.541C5.67188 21.0645 6.45704 21.8379 7.99219 21.8379ZM14.8477 19.9746C12.3282 19.9746 10.3008 17.959 10.3008 15.4278C10.3008 12.9082 12.3282 10.8926 14.8477 10.8926C17.3555 10.8926 19.3711 12.9082 19.3711 15.4278C19.3711 17.9942 17.3555 19.9746 14.8477 19.9746ZM14.836 18.8145C16.6875 18.8145 18.1992 17.3145 18.1992 15.4278C18.1992 13.5645 16.6875 12.0528 14.836 12.0528C12.9727 12.0528 11.461 13.5645 11.461 15.4278C11.461 17.3145 12.9727 18.8145 14.836 18.8145ZM20.8828 13.2481C20.3555 13.2481 19.9102 12.8262 19.9102 12.2871C19.9102 11.7481 20.3555 11.3145 20.8828 11.3145C21.4102 11.3145 21.8321 11.7481 21.8438 12.2871C21.8438 12.8262 21.4102 13.2481 20.8828 13.2481Z" fill="#1B1D22"/>
</svg>
