<svg width="77" height="77" viewBox="0 0 77 77" fill="none" xmlns="http://www.w3.org/2000/svg">
<path d="M5 17C5 10.3726 10.3726 5 17 5H65C71.6274 5 77 10.3726 77 17V65C77 71.6274 71.6274 77 65 77H17C10.3726 77 5 71.6274 5 65V17Z" fill="#1B1D22"/>
<path d="M0 12C0 5.37258 5.37258 0 12 0H60C66.6274 0 72 5.37258 72 12V60C72 66.6274 66.6274 72 60 72H12C5.37258 72 0 66.6274 0 60V12Z" fill="#4ECDC4"/>
<g clip-path="url(#clip0_30_1515)">
<path d="M22.2773 30.8145C22.9453 30.8145 23.3086 30.4277 23.3086 29.7598V26.0566C23.3086 24.3691 24.1992 23.502 25.8398 23.502H29.6133C30.2813 23.502 30.668 23.127 30.668 22.4707C30.668 21.8027 30.2813 21.4277 29.6133 21.4277H25.793C22.7695 21.4277 21.2344 22.9395 21.2344 25.9395V29.7598C21.2344 30.4277 21.6094 30.8145 22.2773 30.8145ZM49.3711 30.8145C50.0508 30.8145 50.4141 30.4277 50.4141 29.7598V25.9395C50.4141 22.9629 48.8906 21.4277 45.8555 21.4277H42.0352C41.3672 21.4277 40.9805 21.8027 40.9805 22.4707C40.9805 23.127 41.3672 23.502 42.0352 23.502H45.8086C47.4141 23.502 48.3399 24.3691 48.3399 26.0566V29.7598C48.3399 30.4277 48.7149 30.8145 49.3711 30.8145ZM25.793 50.6074H29.6133C30.2813 50.6074 30.668 50.2324 30.668 49.5645C30.668 48.9082 30.2813 48.5332 29.6133 48.5332H25.8398C24.1992 48.5332 23.3086 47.666 23.3086 45.9785V42.2754C23.3086 41.6074 22.9336 41.2207 22.2773 41.2207C21.5977 41.2207 21.2344 41.6074 21.2344 42.2754V46.0957C21.2344 49.0957 22.7695 50.6074 25.793 50.6074ZM42.0352 50.6074H45.8555C48.8906 50.6074 50.4141 49.0723 50.4141 46.0957V42.2754C50.4141 41.6074 50.0391 41.2207 49.3711 41.2207C48.7032 41.2207 48.3399 41.6074 48.3399 42.2754V45.9785C48.3399 47.666 47.4141 48.5332 45.8086 48.5332H42.0352C41.3672 48.5332 40.9805 48.9082 40.9805 49.5645C40.9805 50.2324 41.3672 50.6074 42.0352 50.6074Z" fill="#1B1D22"/>
<path d="M28.9922 42.8379H42.668C44.1914 42.8379 44.9883 42.0645 44.9883 40.541V32.4903C44.9883 30.9551 44.1914 30.1816 42.668 30.1816H40.6055C40.0078 30.1816 39.8321 30.0879 39.4571 29.6777L38.8242 28.9746C38.4258 28.5527 38.0742 28.3535 37.2891 28.3535H34.2656C33.5039 28.3535 33.1289 28.541 32.7305 28.9746L32.0977 29.6777C31.7344 30.0762 31.5586 30.1816 30.9492 30.1816H28.9922C27.457 30.1816 26.6719 30.9551 26.6719 32.4903V40.541C26.6719 42.0645 27.457 42.8379 28.9922 42.8379ZM35.8477 40.9746C33.3282 40.9746 31.3008 38.959 31.3008 36.4278C31.3008 33.9082 33.3282 31.8926 35.8477 31.8926C38.3555 31.8926 40.3711 33.9082 40.3711 36.4278C40.3711 38.9942 38.3555 40.9746 35.8477 40.9746ZM35.836 39.8145C37.6875 39.8145 39.1992 38.3145 39.1992 36.4278C39.1992 34.5645 37.6875 33.0528 35.836 33.0528C33.9727 33.0528 32.461 34.5645 32.461 36.4278C32.461 38.3145 33.9727 39.8145 35.836 39.8145ZM41.8828 34.2481C41.3555 34.2481 40.9102 33.8262 40.9102 33.2871C40.9102 32.7481 41.3555 32.3145 41.8828 32.3145C42.4102 32.3145 42.8321 32.7481 42.8438 33.2871C42.8438 33.8262 42.4102 34.2481 41.8828 34.2481Z" fill="#1B1D22"/>
</g>
<defs>
<clipPath id="clip0_30_1515">
<rect width="29.5312" height="29.2148" fill="white" transform="translate(21.2344 21.3926)"/>
</clipPath>
</defs>
</svg>
