<svg width="10" height="10" viewBox="0 0 10 10" fill="none" xmlns="http://www.w3.org/2000/svg">
<path d="M2.31499 5.54833C2.14801 5.54833 2.02277 5.41928 2.02277 5.2523C2.02277 5.08912 2.14801 4.9601 2.31499 4.9601H4.64518V1.86711C4.64518 1.70392 4.77799 1.57489 4.93738 1.57489C5.10436 1.57489 5.23341 1.70392 5.23341 1.86711V5.2523C5.23341 5.41928 5.10436 5.54833 4.93738 5.54833H2.31499ZM4.94117 9.99234C7.64707 9.99234 9.88614 7.75327 9.88614 5.05116C9.88614 2.34529 7.64328 0.106201 4.93738 0.106201C2.23529 0.106201 0 2.34529 0 5.05116C0 7.75327 2.23909 9.99234 4.94117 9.99234Z" fill="#292C33"/>
</svg>
