<svg width="56" height="56" viewBox="0 0 56 56" fill="none" xmlns="http://www.w3.org/2000/svg">
<rect x="0.5" y="0.5" width="55" height="55" rx="27.5" fill="#F6F7F9"/>
<rect x="0.5" y="0.5" width="55" height="55" rx="27.5" stroke="#1B1D22"/>
<path d="M24.657 35.7359C24.7967 35.7359 24.874 35.6279 24.8735 35.5135L24.4593 22.8696C24.4664 22.7552 24.3578 22.6789 24.2428 22.6789C24.1185 22.6789 24.0258 22.7557 24.0264 22.9013L24.4405 35.5288C24.4335 35.6361 24.5185 35.7359 24.657 35.7359ZM27.8882 35.7359C28.0197 35.7359 28.1058 35.6355 28.1058 35.5135V22.9013C28.1058 22.7711 28.0197 22.6789 27.8882 22.6789C27.7645 22.6789 27.6783 22.7711 27.6783 22.9013V35.5135C27.6783 35.6355 27.7645 35.7359 27.8882 35.7359ZM31.1113 35.7435C31.2498 35.7435 31.3349 35.652 31.3278 35.537L31.7495 22.909C31.7425 22.7711 31.6498 22.6872 31.526 22.6872C31.4187 22.6872 31.3101 22.7705 31.3096 22.8855L30.8954 35.5288C30.8948 35.6355 30.9717 35.7435 31.1113 35.7435ZM23.616 19.9124H24.0461V17.7017C24.0461 16.798 24.6292 16.2703 25.6206 16.2703H30.1312C31.1456 16.2703 31.7287 16.798 31.7287 17.7017V19.9124H32.1588V17.7112C32.1588 16.529 31.3957 15.8306 30.091 15.8306H25.6608C24.3797 15.8306 23.616 16.529 23.616 17.7112V19.9124ZM18.2393 20.1233H37.5367C37.6704 20.1233 37.753 20.0249 37.753 19.907C37.753 19.7657 37.6551 19.6825 37.5367 19.6825H18.2393C18.1144 19.6825 18 19.7815 18 19.907C18 20.0407 18.1144 20.1233 18.2393 20.1233ZM23.1852 38.7336H32.5842C33.6099 38.7336 34.522 37.8775 34.5731 36.8824L35.4855 19.9799H35.0071L34.1129 36.8491C34.0723 37.6385 33.3863 38.2927 32.5821 38.2927H23.1703C22.3673 38.2927 21.6883 37.638 21.6401 36.8491L20.7507 19.9958H20.2987L21.2111 36.8754C21.2622 37.8781 22.1578 38.7336 23.1852 38.7336Z" fill="#1B1D22" stroke="black"/>
</svg>
