<svg width="16" height="16" viewBox="0 0 16 16" fill="none" xmlns="http://www.w3.org/2000/svg">
<path d="M14.0004 4.48657C13.9871 4.48657 13.9671 4.48657 13.9471 4.48657C10.4204 4.13324 6.90043 3.9999 3.41376 4.35324L2.05377 4.48657C1.77377 4.51324 1.5271 4.31324 1.50043 4.03324C1.47377 3.75324 1.67377 3.51324 1.9471 3.48657L3.3071 3.35324C6.85376 2.99324 10.4471 3.13324 14.0471 3.48657C14.3204 3.51324 14.5204 3.7599 14.4938 4.03324C14.4738 4.29324 14.2538 4.48657 14.0004 4.48657Z" fill="#D60000" stroke="#D60000" stroke-width="0.228571"/>
<path d="M5.66651 3.8135C5.63984 3.8135 5.61318 3.8135 5.57984 3.80683C5.31318 3.76016 5.12651 3.50016 5.17318 3.2335L5.31984 2.36016C5.42651 1.72016 5.57318 0.833496 7.12651 0.833496H8.87318C10.4332 0.833496 10.5798 1.7535 10.6798 2.36683L10.8265 3.2335C10.8732 3.50683 10.6865 3.76683 10.4198 3.80683C10.1465 3.8535 9.88651 3.66683 9.84651 3.40016L9.69984 2.5335C9.60651 1.9535 9.58651 1.84016 8.87984 1.84016H7.13318C6.42651 1.84016 6.41318 1.9335 6.31318 2.52683L6.15984 3.3935C6.11984 3.64016 5.90651 3.8135 5.66651 3.8135Z" fill="#D60000" stroke="#D60000" stroke-width="0.228571"/>
<path d="M10.1416 15.1665H5.86156C3.53489 15.1665 3.44156 13.8798 3.36823 12.8398L2.93489 6.12647C2.91489 5.85314 3.12823 5.61314 3.40156 5.59314C3.68156 5.57981 3.91489 5.78647 3.93489 6.05981L4.36823 12.7731C4.44156 13.7865 4.46823 14.1665 5.86156 14.1665H10.1416C11.5416 14.1665 11.5682 13.7865 11.6349 12.7731L12.0682 6.05981C12.0882 5.78647 12.3282 5.57981 12.6016 5.59314C12.8749 5.61314 13.0882 5.84647 13.0682 6.12647L12.6349 12.8398C12.5616 13.8798 12.4682 15.1665 10.1416 15.1665Z" fill="#D60000" stroke="#D60000" stroke-width="0.228571"/>
<path d="M9.10672 11.5H6.88672C6.61339 11.5 6.38672 11.2733 6.38672 11C6.38672 10.7267 6.61339 10.5 6.88672 10.5H9.10672C9.38005 10.5 9.60672 10.7267 9.60672 11C9.60672 11.2733 9.38005 11.5 9.10672 11.5Z" fill="#D60000" stroke="#D60000" stroke-width="0.228571"/>
<path d="M9.66536 8.8335H6.33203C6.0587 8.8335 5.83203 8.60683 5.83203 8.3335C5.83203 8.06016 6.0587 7.8335 6.33203 7.8335H9.66536C9.9387 7.8335 10.1654 8.06016 10.1654 8.3335C10.1654 8.60683 9.9387 8.8335 9.66536 8.8335Z" fill="#D60000" stroke="#D60000" stroke-width="0.228571"/>
</svg>
