<svg width="26" height="26" viewBox="0 0 26 26" fill="none" xmlns="http://www.w3.org/2000/svg">
<rect width="26" height="26" rx="13" fill="#F6F7F9"/>
<path d="M19.0449 10.1278H15.4179C15.1644 10.1278 14.9629 9.92627 14.9629 9.67277C14.9629 9.41927 15.1644 9.21777 15.4179 9.21777H19.0449C19.2984 9.21777 19.4999 9.41927 19.4999 9.67277C19.4999 9.92627 19.2984 10.1278 19.0449 10.1278Z" fill="#292D32"/>
<path d="M9.373 10.1278H6.955C6.7015 10.1278 6.5 9.92627 6.5 9.67277C6.5 9.41927 6.7015 9.21777 6.955 9.21777H9.373C9.6265 9.21777 9.828 9.41927 9.828 9.67277C9.828 9.92627 9.62 10.1278 9.373 10.1278Z" fill="#292D32"/>
<path d="M11.7911 12.2395C13.2091 12.2395 14.3586 11.09 14.3586 9.67199C14.3586 8.254 13.2091 7.10449 11.7911 7.10449C10.3731 7.10449 9.22363 8.254 9.22363 9.67199C9.22363 11.09 10.3731 12.2395 11.7911 12.2395Z" fill="#292D32"/>
<path d="M19.0449 16.7772H16.6269C16.3734 16.7772 16.1719 16.5757 16.1719 16.3222C16.1719 16.0687 16.3734 15.8672 16.6269 15.8672H19.0449C19.2984 15.8672 19.4999 16.0687 19.4999 16.3222C19.4999 16.5757 19.2984 16.7772 19.0449 16.7772Z" fill="#292D32"/>
<path d="M10.582 16.7772H6.955C6.7015 16.7772 6.5 16.5757 6.5 16.3222C6.5 16.0687 6.7015 15.8672 6.955 15.8672H10.582C10.8355 15.8672 11.037 16.0687 11.037 16.3222C11.037 16.5757 10.829 16.7772 10.582 16.7772Z" fill="#292D32"/>
<path d="M14.2091 18.8957C15.6271 18.8957 16.7766 17.7462 16.7766 16.3282C16.7766 14.9103 15.6271 13.7607 14.2091 13.7607C12.7911 13.7607 11.6416 14.9103 11.6416 16.3282C11.6416 17.7462 12.7911 18.8957 14.2091 18.8957Z" fill="#292D32"/>
</svg>
