<svg width="16" height="16" viewBox="0 0 16 16" fill="none" xmlns="http://www.w3.org/2000/svg">
<path d="M3.69137 14.0313C3.2847 14.0313 2.9047 13.8913 2.63137 13.6313C2.2847 13.3046 2.11804 12.8113 2.17804 12.2779L2.4247 10.1179C2.47137 9.71127 2.71804 9.17127 3.0047 8.87794L8.47804 3.0846C9.84471 1.63794 11.2714 1.59794 12.718 2.9646C14.1647 4.33127 14.2047 5.75794 12.838 7.2046L7.36471 12.9979C7.0847 13.2979 6.5647 13.5779 6.15804 13.6446L4.01137 14.0113C3.89804 14.0179 3.79804 14.0313 3.69137 14.0313ZM10.618 2.95794C10.1047 2.95794 9.65804 3.27794 9.20471 3.75794L3.73137 9.55794C3.59804 9.69794 3.4447 10.0313 3.41804 10.2246L3.17137 12.3846C3.1447 12.6046 3.19804 12.7846 3.31804 12.8979C3.43804 13.0113 3.61804 13.0513 3.83804 13.0179L5.9847 12.6513C6.17804 12.6179 6.49804 12.4446 6.63137 12.3046L12.1047 6.51127C12.9314 5.63127 13.2314 4.81794 12.0247 3.6846C11.4914 3.17127 11.0314 2.95794 10.618 2.95794Z" fill="#292D32" stroke="black" stroke-width="0.228571"/>
</svg>
