<svg width="61" height="155" viewBox="0 0 61 155" fill="none" xmlns="http://www.w3.org/2000/svg">
<path d="M5.86817 -69.6981C5.83807 -70.1317 6.1817 -70.5 6.61637 -70.5H59.4375C59.8517 -70.5 60.1875 -70.1642 60.1875 -69.75V101.625C60.1875 102.039 59.8517 102.375 59.4375 102.375H18.5122C18.1182 102.375 17.7913 102.07 17.764 101.677L5.86817 -69.6981Z" fill="#E1E2E5"/>
<path d="M5.86817 -69.6981C5.83807 -70.1317 6.1817 -70.5 6.61637 -70.5H59.4375C59.8517 -70.5 60.1875 -70.1642 60.1875 -69.75V101.625C60.1875 102.039 59.8517 102.375 59.4375 102.375H18.5122C18.1182 102.375 17.7913 102.07 17.764 101.677L5.86817 -69.6981Z" fill="#00003D"/>
<path d="M5.86817 -69.6981C5.83807 -70.1317 6.1817 -70.5 6.61637 -70.5H59.4375C59.8517 -70.5 60.1875 -70.1642 60.1875 -69.75V101.625C60.1875 102.039 59.8517 102.375 59.4375 102.375H18.5122C18.1182 102.375 17.7913 102.07 17.764 101.677L5.86817 -69.6981Z" fill="#CED0D5"/>
<path d="M17.4375 133.438C17.4375 121.736 26.9235 112.25 38.625 112.25C50.3265 112.25 59.8125 121.736 59.8125 133.438C59.8125 145.139 50.3265 154.625 38.625 154.625C26.9235 154.625 17.4375 145.139 17.4375 133.438Z" fill="#E1E2E5"/>
<path d="M17.4375 133.438C17.4375 121.736 26.9235 112.25 38.625 112.25C50.3265 112.25 59.8125 121.736 59.8125 133.438C59.8125 145.139 50.3265 154.625 38.625 154.625C26.9235 154.625 17.4375 145.139 17.4375 133.438Z" fill="#00003D"/>
<path d="M17.4375 133.438C17.4375 121.736 26.9235 112.25 38.625 112.25C50.3265 112.25 59.8125 121.736 59.8125 133.438C59.8125 145.139 50.3265 154.625 38.625 154.625C26.9235 154.625 17.4375 145.139 17.4375 133.438Z" fill="#CED0D5"/>
<path d="M0.868165 -74.6981C0.838066 -75.1317 1.1817 -75.5 1.61637 -75.5H54.4375C54.8517 -75.5 55.1875 -75.1642 55.1875 -74.75V96.625C55.1875 97.0392 54.8517 97.375 54.4375 97.375H13.5122C13.1182 97.375 12.7913 97.0701 12.764 96.6769L0.868165 -74.6981Z" fill="#E1E2E5"/>
<path d="M12.4375 128.438C12.4375 116.736 21.9235 107.25 33.625 107.25C45.3265 107.25 54.8125 116.736 54.8125 128.438C54.8125 140.139 45.3265 149.625 33.625 149.625C21.9235 149.625 12.4375 140.139 12.4375 128.438Z" fill="#E1E2E5"/>
</svg>
