<svg width="24" height="24" viewBox="0 0 24 24" fill="none" xmlns="http://www.w3.org/2000/svg">
<g clip-path="url(#clip0_175_6460)">
<path d="M0 21.6443C0 22.4205 0.451297 22.8628 1.20947 22.8628C1.48026 22.8628 1.76006 22.7816 2.09402 22.592L7.15757 19.8391V0.848517C6.94095 0.938776 6.70627 1.05611 6.48062 1.18248L0.938697 4.41376C0.306882 4.76578 0 5.25317 0 5.97525V21.6443ZM8.59265 19.6856L14.4325 23.0343C14.613 23.1336 14.7935 23.2148 14.965 23.26V4.46792L9.26967 0.983905C9.06202 0.857543 8.82734 0.758257 8.59265 0.704102V19.6856ZM16.4092 23.2238C16.5356 23.1787 16.6709 23.1245 16.7973 23.0433L22.7995 19.6044C23.4223 19.2434 23.7292 18.765 23.7292 18.0339V2.35585C23.7292 1.57059 23.2688 1.13735 22.5287 1.13735C22.2579 1.13735 21.9782 1.21858 21.6442 1.40812L16.4092 4.29642V23.2238Z" fill="#CED0D5"/>
</g>
<defs>
<clipPath id="clip0_175_6460">
<rect width="24" height="22.5919" fill="white" transform="translate(0 0.704102)"/>
</clipPath>
</defs>
</svg>
