<svg width="24" height="24" viewBox="0 0 24 24" fill="none" xmlns="http://www.w3.org/2000/svg">
<g clip-path="url(#clip0_26_1514)">
<path d="M0 21.9402C0 22.7164 0.451297 23.1587 1.20947 23.1587C1.48026 23.1587 1.76006 23.0775 2.09402 22.8879L7.15757 20.135V1.14441C6.94095 1.23467 6.70627 1.35201 6.48062 1.47837L0.938697 4.70966C0.306882 5.06167 0 5.54907 0 6.27115V21.9402ZM8.59265 19.9815L14.4325 23.3302C14.613 23.4295 14.7935 23.5107 14.965 23.5559V4.76382L9.26967 1.2798C9.06202 1.15344 8.82734 1.05416 8.59265 1V19.9815ZM16.4092 23.5197C16.5356 23.4746 16.6709 23.4204 16.7973 23.3392L22.7995 19.9003C23.4223 19.5393 23.7292 19.0609 23.7292 18.3298V2.65175C23.7292 1.86649 23.2688 1.43324 22.5287 1.43324C22.2579 1.43324 21.9782 1.51448 21.6442 1.70402L16.4092 4.59232V23.5197Z" fill="#1B1D22"/>
</g>
<defs>
<clipPath id="clip0_26_1514">
<rect width="24" height="22.5919" fill="white" transform="translate(0 0.704102)"/>
</clipPath>
</defs>
</svg>
