<svg width="231" height="230" viewBox="0 0 231 230" fill="none" xmlns="http://www.w3.org/2000/svg">
<path d="M197.079 72.2669C187.016 27.9919 148.396 8.05859 114.471 8.05859C114.471 8.05859 114.471 8.05859 114.375 8.05859C80.5456 8.05859 41.829 27.8961 31.7665 72.1711C20.554 121.621 50.8373 184.409 78.2456 210.764C88.404 220.539 101.437 225.426 114.471 225.426C127.504 225.426 140.537 220.539 150.6 210.764C178.008 184.409 208.292 121.717 197.079 72.2669ZM114.471 120.279C97.7956 120.279 84.2831 106.767 84.2831 90.0919C84.2831 73.4169 97.7956 59.9044 114.471 59.9044C131.146 59.9044 144.658 73.4169 144.658 90.0919C144.658 106.767 131.146 120.279 114.471 120.279Z" fill="#00003D"/>
<path d="M197.079 72.2669C187.016 27.9919 148.396 8.05859 114.471 8.05859C114.471 8.05859 114.471 8.05859 114.375 8.05859C80.5456 8.05859 41.829 27.8961 31.7665 72.1711C20.554 121.621 50.8373 184.409 78.2456 210.764C88.404 220.539 101.437 225.426 114.471 225.426C127.504 225.426 140.537 220.539 150.6 210.764C178.008 184.409 208.292 121.717 197.079 72.2669ZM114.471 120.279C97.7956 120.279 84.2831 106.767 84.2831 90.0919C84.2831 73.4169 97.7956 59.9044 114.471 59.9044C131.146 59.9044 144.658 73.4169 144.658 90.0919C144.658 106.767 131.146 120.279 114.471 120.279Z" fill="#CED0D5"/>
<path d="M190.109 65.2972C180.047 21.0222 141.426 1.08887 107.501 1.08887C107.501 1.08887 107.501 1.08887 107.405 1.08887C73.5759 1.08887 34.8592 20.9264 24.7967 65.2014C13.5842 114.651 43.8676 177.44 71.2759 203.794C81.4343 213.569 94.4676 218.456 107.501 218.456C120.534 218.456 133.568 213.569 143.63 203.794C171.038 177.44 201.322 114.747 190.109 65.2972ZM107.501 113.31C90.8259 113.31 77.3134 99.7972 77.3134 83.1222C77.3134 66.4472 90.8259 52.9347 107.501 52.9347C124.176 52.9347 137.688 66.4472 137.688 83.1222C137.688 99.7972 124.176 113.31 107.501 113.31Z" fill="#E1E2E5"/>
</svg>
