<svg width="61" height="231" viewBox="0 0 61 231" fill="none" xmlns="http://www.w3.org/2000/svg">
<path d="M5.86817 5.80193C5.83807 5.36831 6.1817 5 6.61637 5H59.4375C59.8517 5 60.1875 5.33579 60.1875 5.75V177.125C60.1875 177.539 59.8517 177.875 59.4375 177.875H18.5122C18.1182 177.875 17.7913 177.57 17.764 177.177L5.86817 5.80193Z" fill="#E1E2E5"/>
<path d="M5.86817 5.80193C5.83807 5.36831 6.1817 5 6.61637 5H59.4375C59.8517 5 60.1875 5.33579 60.1875 5.75V177.125C60.1875 177.539 59.8517 177.875 59.4375 177.875H18.5122C18.1182 177.875 17.7913 177.57 17.764 177.177L5.86817 5.80193Z" fill="#00003D"/>
<path d="M17.4375 208.938C17.4375 197.236 26.9235 187.75 38.625 187.75C50.3265 187.75 59.8125 197.236 59.8125 208.938C59.8125 220.639 50.3265 230.125 38.625 230.125C26.9235 230.125 17.4375 220.639 17.4375 208.938Z" fill="#E1E2E5"/>
<path d="M17.4375 208.938C17.4375 197.236 26.9235 187.75 38.625 187.75C50.3265 187.75 59.8125 197.236 59.8125 208.938C59.8125 220.639 50.3265 230.125 38.625 230.125C26.9235 230.125 17.4375 220.639 17.4375 208.938Z" fill="#00003D"/>
<path d="M0.868165 0.801931C0.838066 0.368314 1.1817 0 1.61637 0H54.4375C54.8517 0 55.1875 0.335786 55.1875 0.75V172.125C55.1875 172.539 54.8517 172.875 54.4375 172.875H13.5122C13.1182 172.875 12.7913 172.57 12.764 172.177L0.868165 0.801931Z" fill="#E1E2E5"/>
<path d="M12.4375 203.938C12.4375 192.236 21.9235 182.75 33.625 182.75C45.3265 182.75 54.8125 192.236 54.8125 203.938C54.8125 215.639 45.3265 225.125 33.625 225.125C21.9235 225.125 12.4375 215.639 12.4375 203.938Z" fill="#E1E2E5"/>
</svg>
