<svg width="62" height="231" viewBox="0 0 62 231" fill="none" xmlns="http://www.w3.org/2000/svg">
<path d="M7.05567 5.80193C7.02557 5.36831 7.3692 5 7.80387 5H60.625C61.0392 5 61.375 5.33579 61.375 5.75V177.125C61.375 177.539 61.0392 177.875 60.625 177.875H19.6997C19.3057 177.875 18.9788 177.57 18.9515 177.177L7.05567 5.80193Z" fill="#4ECDC4"/>
<path d="M7.05567 5.80193C7.02557 5.36831 7.3692 5 7.80387 5H60.625C61.0392 5 61.375 5.33579 61.375 5.75V177.125C61.375 177.539 61.0392 177.875 60.625 177.875H19.6997C19.3057 177.875 18.9788 177.57 18.9515 177.177L7.05567 5.80193Z" fill="#00003D"/>
<path d="M18.625 208.938C18.625 197.236 28.111 187.75 39.8125 187.75C51.514 187.75 61 197.236 61 208.938C61 220.639 51.514 230.125 39.8125 230.125C28.111 230.125 18.625 220.639 18.625 208.938Z" fill="#4ECDC4"/>
<path d="M18.625 208.938C18.625 197.236 28.111 187.75 39.8125 187.75C51.514 187.75 61 197.236 61 208.938C61 220.639 51.514 230.125 39.8125 230.125C28.111 230.125 18.625 220.639 18.625 208.938Z" fill="#00003D"/>
<path d="M0.0556655 0.801931C0.0255662 0.368314 0.369205 0 0.803865 0H53.625C54.0392 0 54.375 0.335786 54.375 0.75V172.125C54.375 172.539 54.0392 172.875 53.625 172.875H12.6997C12.3057 172.875 11.9788 172.57 11.9515 172.177L0.0556655 0.801931Z" fill="#4ECDC4"/>
<path d="M11.625 203.938C11.625 192.236 21.111 182.75 32.8125 182.75C44.514 182.75 54 192.236 54 203.938C54 215.639 44.514 225.125 32.8125 225.125C21.111 225.125 11.625 215.639 11.625 203.938Z" fill="#4ECDC4"/>
</svg>
