<svg width="24" height="26" viewBox="0 0 24 26" fill="none" xmlns="http://www.w3.org/2000/svg">
<g clip-path="url(#clip0_30_1501)">
<path d="M18.0747 3.42499H5.70508C5.75373 2.7373 6.20021 2.3396 6.92978 2.3396H16.8425C17.5721 2.3396 18.0253 2.7373 18.0747 3.42499Z" fill="#1B1D22"/>
<path d="M20.0341 6.08137C19.762 6.03979 19.4738 6.02078 19.1732 6.02078H4.60014C4.29943 6.02078 4.01121 6.03962 3.73926 6.0809C3.84248 5.27384 4.39858 4.82153 5.29085 4.82153H18.4825C19.3749 4.82153 19.9311 5.27402 20.0341 6.08137Z" fill="#1B1D22"/>
<path d="M22.1257 10.5902V20.7078C22.1257 22.6433 21.1313 23.6376 19.1731 23.6376H4.60002C2.63418 23.6376 1.64746 22.6509 1.64746 20.7078V10.5902C1.64746 8.64708 2.63418 7.66797 4.60002 7.66797H19.1731C21.1313 7.66797 22.1257 8.65466 22.1257 10.5902ZM36.8786 11.7514L32.4839 18.7268L30.2979 15.9943C30.1006 15.7287 29.9108 15.6452 29.668 15.6452C29.296 15.6452 29 15.9563 29 16.3359C29 16.5256 29.0759 16.7154 29.2049 16.8823L31.7856 20.0095C32.0133 20.2979 32.2334 20.4117 32.5218 20.4117C32.8102 20.4117 33.0455 20.2751 33.2201 20.0095L37.9716 12.5484C38.0778 12.389 38.1765 12.1916 38.1765 12.0095C38.1765 11.6224 37.8349 11.3643 37.4706 11.3643C37.2505 11.3643 37.0303 11.5009 36.8786 11.7514Z" fill="#1B1D22"/>
<path d="M36.8786 11.7514L32.4839 18.7268L30.2979 15.9943C30.1006 15.7287 29.9108 15.6452 29.668 15.6452C29.296 15.6452 29 15.9563 29 16.3359C29 16.5256 29.0759 16.7154 29.2049 16.8823L31.7856 20.0095C32.0133 20.2979 32.2334 20.4117 32.5218 20.4117C32.8102 20.4117 33.0455 20.2751 33.2201 20.0095L37.9716 12.5484C38.0778 12.389 38.1765 12.1916 38.1765 12.0095C38.1765 11.6224 37.8349 11.3643 37.4706 11.3643C37.2505 11.3643 37.0303 11.5009 36.8786 11.7514Z" fill="#1B1D22"/>
</g>
<defs>
<clipPath id="clip0_30_1501">
<rect width="24" height="24.5541" fill="white" transform="translate(0 0.7229)"/>
</clipPath>
</defs>
</svg>
