<svg width="24" height="26" viewBox="0 0 24 26" fill="none" xmlns="http://www.w3.org/2000/svg">
<g clip-path="url(#clip0_26_1508)">
<path d="M18.0747 3.42524H5.70508C5.75373 2.73755 6.20021 2.33984 6.92978 2.33984H16.8425C17.5721 2.33984 18.0253 2.73755 18.0747 3.42524Z" fill="#CED0D5"/>
<path d="M20.0336 6.08113C19.7615 6.03955 19.4733 6.02053 19.1727 6.02053H4.59965C4.29894 6.02053 4.01072 6.03938 3.73877 6.08065C3.84199 5.2736 4.39809 4.82129 5.29036 4.82129H18.482C19.3744 4.82129 19.9306 5.27377 20.0336 6.08113Z" fill="#CED0D5"/>
<path d="M22.1252 10.5902V20.7078C22.1252 22.6433 21.1308 23.6376 19.1726 23.6376H4.59953C2.63369 23.6376 1.64697 22.6509 1.64697 20.7078V10.5902C1.64697 8.64708 2.63369 7.66797 4.59953 7.66797H19.1726C21.1308 7.66797 22.1252 8.65466 22.1252 10.5902ZM25.7021 41.3871L21.3074 48.3624L19.1214 45.63C18.9241 45.3643 18.7344 45.2808 18.4915 45.2808C18.1195 45.2808 17.8235 45.592 17.8235 45.9715C17.8235 46.1613 17.8994 46.351 18.0284 46.518L20.6091 49.6451C20.8368 49.9336 21.0569 50.0474 21.3453 50.0474C21.6337 50.0474 21.8691 49.9108 22.0436 49.6451L26.7951 42.184C26.9013 42.0246 27 41.8273 27 41.6452C27 41.258 26.6584 41 26.2941 41C26.074 41 25.8538 41.1366 25.7021 41.3871Z" fill="#CED0D5"/>
<path d="M25.7021 41.3871L21.3074 48.3624L19.1214 45.63C18.9241 45.3643 18.7344 45.2808 18.4915 45.2808C18.1195 45.2808 17.8235 45.592 17.8235 45.9715C17.8235 46.1613 17.8994 46.351 18.0284 46.518L20.6091 49.6451C20.8368 49.9336 21.0569 50.0474 21.3453 50.0474C21.6337 50.0474 21.8691 49.9108 22.0436 49.6451L26.7951 42.184C26.9013 42.0246 27 41.8273 27 41.6452C27 41.258 26.6584 41 26.2941 41C26.074 41 25.8538 41.1366 25.7021 41.3871Z" fill="#CED0D5"/>
</g>
<defs>
<clipPath id="clip0_26_1508">
<rect width="24" height="24.5541" fill="white" transform="translate(0 0.722656)"/>
</clipPath>
</defs>
</svg>
