<svg width="26" height="26" viewBox="0 0 26 26" fill="none" xmlns="http://www.w3.org/2000/svg">
<path d="M25.0877 6.68726C24.2877 3.97476 22.0252 1.71226 19.3127 0.912258C17.2502 0.312258 15.8252 0.362258 14.8377 1.09976C13.6502 1.98726 13.5127 3.58726 13.5127 4.72476V7.83726C13.5127 10.9123 14.9127 12.4748 17.6627 12.4748H21.2502C22.3752 12.4748 23.9877 12.3373 24.8752 11.1498C25.6377 10.1748 25.7002 8.74976 25.0877 6.68726Z" fill="#CED0D5"/>
<path d="M21.6373 14.7002C21.3123 14.3252 20.8372 14.1127 20.3497 14.1127H15.8748C13.6748 14.1127 11.8872 12.3252 11.8872 10.1252V5.65019C11.8872 5.16269 11.6748 4.68769 11.2998 4.36269C10.9373 4.03769 10.4373 3.88769 9.96225 3.95019C7.02475 4.32519 4.32475 5.93769 2.56225 8.36269C0.787251 10.8002 0.137251 13.7752 0.699751 16.7502C1.51225 21.0502 4.94975 24.4877 9.26225 25.3002C9.94975 25.4377 10.6372 25.5002 11.3247 25.5002C13.5872 25.5002 15.7748 24.8002 17.6373 23.4377C20.0623 21.6752 21.6748 18.9752 22.0498 16.0377C22.1123 15.5502 21.9623 15.0627 21.6373 14.7002Z" fill="#CED0D5"/>
</svg>
