<svg width="26" height="26" viewBox="0 0 26 26" fill="none" xmlns="http://www.w3.org/2000/svg">
<path d="M25.0877 6.68775C24.2877 3.97525 22.0252 1.71275 19.3127 0.912746C17.2502 0.312746 15.8252 0.362746 14.8377 1.10025C13.6502 1.98775 13.5127 3.58775 13.5127 4.72525V7.83775C13.5127 10.9127 14.9127 12.4752 17.6627 12.4752H21.2502C22.3752 12.4752 23.9877 12.3377 24.8752 11.1502C25.6377 10.1752 25.7002 8.75025 25.0877 6.68775Z" fill="#1B1D22"/>
<path d="M21.6373 14.7004C21.3123 14.3254 20.8372 14.1129 20.3497 14.1129H15.8748C13.6748 14.1129 11.8872 12.3254 11.8872 10.1254V5.65043C11.8872 5.16293 11.6748 4.68793 11.2998 4.36293C10.9373 4.03793 10.4373 3.88793 9.96225 3.95043C7.02475 4.32543 4.32475 5.93793 2.56225 8.36293C0.787251 10.8004 0.137251 13.7754 0.699751 16.7504C1.51225 21.0504 4.94975 24.4879 9.26225 25.3004C9.94975 25.4379 10.6372 25.5004 11.3247 25.5004C13.5872 25.5004 15.7748 24.8004 17.6373 23.4379C20.0623 21.6754 21.6748 18.9754 22.0498 16.0379C22.1123 15.5504 21.9623 15.0629 21.6373 14.7004Z" fill="#1B1D22"/>
</svg>
