<svg width="56" height="56" viewBox="0 0 56 56" fill="none" xmlns="http://www.w3.org/2000/svg">
<rect x="0.5" y="0.5" width="55" height="55" rx="27.5" fill="#F6F7F9"/>
<rect x="0.5" y="0.5" width="55" height="55" rx="27.5" stroke="#1B1D22"/>
<path d="M37.7246 24.1714V36.9216C37.7246 38.8442 36.6848 39.9188 34.7339 39.9188H20.9906C19.0404 39.9188 18 38.879 18 36.9216V24.1714C18 22.2139 19.0404 21.1748 20.9906 21.1748H25.8513V21.6557H21.0188C19.3408 21.6557 18.4809 22.5229 18.4809 24.1943V36.8987C18.4809 38.5701 19.3408 39.4372 21.0188 39.4372H34.7057C36.3135 39.4372 37.2437 38.5701 37.2437 36.8987V24.1943C37.2437 22.5229 36.3135 21.6557 34.7057 21.6557H29.8733V21.1748H34.7339C36.6848 21.1748 37.7246 22.2487 37.7246 24.1714Z" fill="#1B1D22" stroke="black"/>
<path d="M27.8622 31.148C27.9948 31.148 28.1066 31.0375 28.1066 30.9049V16.8453L28.0935 15.2376L29.7234 16.8786L32.2233 19.3679C32.2677 19.4136 32.3423 19.4535 32.407 19.4535C32.5049 19.4535 32.6213 19.3384 32.6213 19.2241C32.6213 19.1581 32.5978 19.1124 32.5534 19.0673L28.0314 14.5103C27.983 14.4705 27.9189 14.4404 27.8622 14.4404C27.8054 14.4404 27.7413 14.4705 27.6929 14.5103L23.1624 19.0673C23.1088 19.1124 23.0859 19.1581 23.0859 19.2241C23.0859 19.3384 23.184 19.4535 23.2989 19.4535C23.3637 19.4535 23.4388 19.4136 23.4918 19.3679L25.9839 16.8786L27.6308 15.2205L27.6177 16.8453V30.9049C27.6177 31.0375 27.7295 31.148 27.8622 31.148Z" fill="#1B1D22" stroke="black"/>
</svg>
