<svg width="12" height="16" viewBox="0 0 12 16" fill="none" xmlns="http://www.w3.org/2000/svg">
<path d="M8.66504 0.568848C9.31978 0.423831 9.94105 0.498353 10.4023 0.88916C10.859 1.27621 11.0459 1.87885 11.0459 2.54053V12.106C11.0459 12.6769 10.9438 13.1767 10.6504 13.5728C10.3533 13.9734 9.91834 14.1908 9.42188 14.3198L9.41797 14.3208C6.99754 14.9297 4.92068 15.1236 2.75781 15.2134L2.75879 15.2144C2.13052 15.2456 1.55455 15.1068 1.12988 14.7378C0.697742 14.3623 0.5 13.8159 0.5 13.1978V3.52881C0.5 2.89108 0.692445 2.34286 1.0918 1.94873C1.48637 1.55942 2.02426 1.37808 2.60547 1.34912H2.60742C4.82457 1.24679 6.83842 0.948811 8.66504 0.567871V0.568848Z" stroke="#1B1D22"/>
</svg>
