<svg width="56" height="64" viewBox="0 0 56 64" fill="none" xmlns="http://www.w3.org/2000/svg">
<path d="M23.098 8.25896C23.0915 8.16488 23.166 8.08496 23.2604 8.08496H34.7214C34.8113 8.08496 34.8841 8.15782 34.8841 8.24769V45.4324C34.8841 45.5222 34.8113 45.5951 34.7214 45.5951H25.8415C25.756 45.5951 25.6851 45.5289 25.6792 45.4436L23.098 8.25896Z" fill="#4ECDC4"/>
<path d="M23.098 8.25896C23.0915 8.16488 23.166 8.08496 23.2604 8.08496H34.7214C34.8113 8.08496 34.8841 8.15782 34.8841 8.24769V45.4324C34.8841 45.5222 34.8113 45.5951 34.7214 45.5951H25.8415C25.756 45.5951 25.6851 45.5289 25.6792 45.4436L23.098 8.25896Z" fill="#00003D"/>
<path d="M25.6094 52.335C25.6094 49.796 27.6676 47.7378 30.2066 47.7378C32.7456 47.7378 34.8038 49.796 34.8038 52.335C34.8038 54.874 32.7456 56.9323 30.2066 56.9323C27.6676 56.9323 25.6094 54.874 25.6094 52.335Z" fill="#4ECDC4"/>
<path d="M25.6094 52.335C25.6094 49.796 27.6676 47.7378 30.2066 47.7378C32.7456 47.7378 34.8038 49.796 34.8038 52.335C34.8038 54.874 32.7456 56.9323 30.2066 56.9323C27.6676 56.9323 25.6094 54.874 25.6094 52.335Z" fill="#00003D"/>
<path d="M22.0121 7.174C22.0055 7.07992 22.0801 7 22.1744 7H33.6355C33.7253 7 33.7982 7.07286 33.7982 7.16273V44.3474C33.7982 44.4373 33.7253 44.5101 33.6355 44.5101H24.7556C24.6701 44.5101 24.5991 44.444 24.5932 44.3587L22.0121 7.174Z" fill="#4ECDC4"/>
<path d="M24.5234 51.2501C24.5234 48.7111 26.5817 46.6528 29.1207 46.6528C31.6596 46.6528 33.7179 48.7111 33.7179 51.2501C33.7179 53.789 31.6596 55.8473 29.1207 55.8473C26.5817 55.8473 24.5234 53.789 24.5234 51.2501Z" fill="#4ECDC4"/>
</svg>
