<svg width="30" height="30" viewBox="0 0 30 30" fill="none" xmlns="http://www.w3.org/2000/svg">
<path d="M24.2941 5.0431C24.4594 5.303 24.1762 5.60577 23.8758 5.5375C23.2883 5.3625 22.6383 5.275 21.9758 5.275H17.8504C17.6539 5.275 17.4688 5.18257 17.3508 5.02546L15.9133 3.1125C15.7372 2.86305 15.9036 2.5 16.209 2.5H19.6508C21.602 2.5 23.3209 3.51341 24.2941 5.0431Z" fill="#292D32"/>
<path d="M25.175 8.175C24.6375 7.7875 24.025 7.5 23.3625 7.3375C22.9125 7.2125 22.45 7.15 21.975 7.15H17.325C16.6 7.15 16.55 7.0875 16.1625 6.575L14.4125 4.25C13.6 3.1625 12.9625 2.5 10.925 2.5H8.025C4.975 2.5 2.5 4.975 2.5 8.025V21.975C2.5 25.025 4.975 27.5 8.025 27.5H21.975C25.025 27.5 27.5 25.025 27.5 21.975V12.675C27.5 10.8125 26.5875 9.175 25.175 8.175ZM17.9875 20.425H12C11.5125 20.425 11.1375 20.0375 11.1375 19.55C11.1375 19.075 11.5125 18.675 12 18.675H17.9875C18.475 18.675 18.8625 19.075 18.8625 19.55C18.8625 20.0375 18.475 20.425 17.9875 20.425Z" fill="#292D32"/>
</svg>
