<svg width="393" height="445" viewBox="0 0 393 445" fill="none" xmlns="http://www.w3.org/2000/svg">
<path d="M5.5 30.5H28.5V0H29.5V30.5H52.5V0H53.5V30.5H76.5V0H77.5V30.5H100.5V0H101.5V30.5H124.5V0H125.5V30.5H148.5V0H149.5V30.5H172.5V0H173.5V30.5H196.5V0H197.5V30.5H220.5V0H221.5V30.5H244.5V0H245.5V30.5H268.5V0H269.5V30.5H292.5V0H293.5V30.5H316.5V0H317.5V30.5H340.5V0H341.5V30.5H364.5V0H365.5V30.5H388.5V0H389.5V30.5H419V31.5H389.5V54.5H419V55.5H389.5V78.5H419V79.5H389.5V102.5H419V103.5H389.5V126.5H419V127.5H389.5V150.5H419V151.5H389.5V174.5H419V175.5H389.5V198.5H419V199.5H389.5V222.5H419V223.5H389.5V246.5H419V247.5H389.5V270.5H419V271.5H389.5V294.5H419V295.5H389.5V318.5H419V319.5H389.5V342.5H419V343.5H389.5V366.5H419V367.5H389.5V390.5H419V391.5H389.5V414.5H419V415.5H389.5V445H388.5V415.5H365.5V445H364.5V415.5H341.5V445H340.5V415.5H317.5V445H316.5V415.5H293.5V445H292.5V415.5H269.5V445H268.5V415.5H245.5V445H244.5V415.5H221.5V445H220.5V415.5H197.5V445H196.5V415.5H173.5V445H172.5V415.5H149.5V445H148.5V415.5H125.5V445H124.5V415.5H101.5V445H100.5V415.5H77.5V445H76.5V415.5H53.5V445H52.5V415.5H29.5V445H28.5V415.5H5.5V445H4.5V415.5H-26V414.5H4.5V391.5H-26V390.5H4.5V367.5H-26V366.5H4.5V343.5H-26V342.5H4.5V319.5H-26V318.5H4.5V295.5H-26V294.5H4.5V271.5H-26V270.5H4.5V247.5H-26V246.5H4.5V223.5H-26V222.5H4.5V199.5H-26V198.5H4.5V175.5H-26V174.5H4.5V151.5H-26V150.5H4.5V127.5H-26V126.5H4.5V103.5H-26V102.5H4.5V79.5H-26V78.5H4.5V55.5H-26V54.5H4.5V31.5H-26V30.5H4.5V0H5.5V30.5ZM5.5 414.5H28.5V391.5H5.5V414.5ZM29.5 414.5H52.5V391.5H29.5V414.5ZM53.5 414.5H76.5V391.5H53.5V414.5ZM77.5 414.5H100.5V391.5H77.5V414.5ZM101.5 414.5H124.5V391.5H101.5V414.5ZM125.5 414.5H148.5V391.5H125.5V414.5ZM149.5 414.5H172.5V391.5H149.5V414.5ZM173.5 414.5H196.5V391.5H173.5V414.5ZM197.5 414.5H220.5V391.5H197.5V414.5ZM221.5 414.5H244.5V391.5H221.5V414.5ZM245.5 414.5H268.5V391.5H245.5V414.5ZM269.5 414.5H292.5V391.5H269.5V414.5ZM293.5 414.5H316.5V391.5H293.5V414.5ZM317.5 414.5H340.5V391.5H317.5V414.5ZM341.5 414.5H364.5V391.5H341.5V414.5ZM365.5 414.5H388.5V391.5H365.5V414.5ZM5.5 390.5H28.5V367.5H5.5V390.5ZM29.5 390.5H52.5V367.5H29.5V390.5ZM53.5 390.5H76.5V367.5H53.5V390.5ZM77.5 390.5H100.5V367.5H77.5V390.5ZM101.5 390.5H124.5V367.5H101.5V390.5ZM125.5 390.5H148.5V367.5H125.5V390.5ZM149.5 390.5H172.5V367.5H149.5V390.5ZM173.5 390.5H196.5V367.5H173.5V390.5ZM197.5 390.5H220.5V367.5H197.5V390.5ZM221.5 390.5H244.5V367.5H221.5V390.5ZM245.5 390.5H268.5V367.5H245.5V390.5ZM269.5 390.5H292.5V367.5H269.5V390.5ZM293.5 390.5H316.5V367.5H293.5V390.5ZM317.5 390.5H340.5V367.5H317.5V390.5ZM341.5 390.5H364.5V367.5H341.5V390.5ZM365.5 390.5H388.5V367.5H365.5V390.5ZM5.5 366.5H28.5V343.5H5.5V366.5ZM29.5 366.5H52.5V343.5H29.5V366.5ZM53.5 366.5H76.5V343.5H53.5V366.5ZM77.5 366.5H100.5V343.5H77.5V366.5ZM101.5 366.5H124.5V343.5H101.5V366.5ZM125.5 366.5H148.5V343.5H125.5V366.5ZM149.5 366.5H172.5V343.5H149.5V366.5ZM173.5 366.5H196.5V343.5H173.5V366.5ZM197.5 366.5H220.5V343.5H197.5V366.5ZM221.5 366.5H244.5V343.5H221.5V366.5ZM245.5 366.5H268.5V343.5H245.5V366.5ZM269.5 366.5H292.5V343.5H269.5V366.5ZM293.5 366.5H316.5V343.5H293.5V366.5ZM317.5 366.5H340.5V343.5H317.5V366.5ZM341.5 366.5H364.5V343.5H341.5V366.5ZM365.5 366.5H388.5V343.5H365.5V366.5ZM5.5 342.5H28.5V319.5H5.5V342.5ZM29.5 342.5H52.5V319.5H29.5V342.5ZM53.5 342.5H76.5V319.5H53.5V342.5ZM77.5 342.5H100.5V319.5H77.5V342.5ZM101.5 342.5H124.5V319.5H101.5V342.5ZM125.5 342.5H148.5V319.5H125.5V342.5ZM149.5 342.5H172.5V319.5H149.5V342.5ZM173.5 342.5H196.5V319.5H173.5V342.5ZM197.5 342.5H220.5V319.5H197.5V342.5ZM221.5 342.5H244.5V319.5H221.5V342.5ZM245.5 342.5H268.5V319.5H245.5V342.5ZM269.5 342.5H292.5V319.5H269.5V342.5ZM293.5 342.5H316.5V319.5H293.5V342.5ZM317.5 342.5H340.5V319.5H317.5V342.5ZM341.5 342.5H364.5V319.5H341.5V342.5ZM365.5 342.5H388.5V319.5H365.5V342.5ZM5.5 318.5H28.5V295.5H5.5V318.5ZM29.5 318.5H52.5V295.5H29.5V318.5ZM53.5 318.5H76.5V295.5H53.5V318.5ZM77.5 318.5H100.5V295.5H77.5V318.5ZM101.5 318.5H124.5V295.5H101.5V318.5ZM125.5 318.5H148.5V295.5H125.5V318.5ZM149.5 318.5H172.5V295.5H149.5V318.5ZM173.5 318.5H196.5V295.5H173.5V318.5ZM197.5 318.5H220.5V295.5H197.5V318.5ZM221.5 318.5H244.5V295.5H221.5V318.5ZM245.5 318.5H268.5V295.5H245.5V318.5ZM269.5 318.5H292.5V295.5H269.5V318.5ZM293.5 318.5H316.5V295.5H293.5V318.5ZM317.5 318.5H340.5V295.5H317.5V318.5ZM341.5 318.5H364.5V295.5H341.5V318.5ZM365.5 318.5H388.5V295.5H365.5V318.5ZM5.5 294.5H28.5V271.5H5.5V294.5ZM29.5 294.5H52.5V271.5H29.5V294.5ZM53.5 294.5H76.5V271.5H53.5V294.5ZM77.5 294.5H100.5V271.5H77.5V294.5ZM101.5 294.5H124.5V271.5H101.5V294.5ZM125.5 294.5H148.5V271.5H125.5V294.5ZM149.5 294.5H172.5V271.5H149.5V294.5ZM173.5 294.5H196.5V271.5H173.5V294.5ZM197.5 294.5H220.5V271.5H197.5V294.5ZM221.5 294.5H244.5V271.5H221.5V294.5ZM245.5 294.5H268.5V271.5H245.5V294.5ZM269.5 294.5H292.5V271.5H269.5V294.5ZM293.5 294.5H316.5V271.5H293.5V294.5ZM317.5 294.5H340.5V271.5H317.5V294.5ZM341.5 294.5H364.5V271.5H341.5V294.5ZM365.5 294.5H388.5V271.5H365.5V294.5ZM5.5 270.5H28.5V247.5H5.5V270.5ZM29.5 270.5H52.5V247.5H29.5V270.5ZM53.5 270.5H76.5V247.5H53.5V270.5ZM77.5 270.5H100.5V247.5H77.5V270.5ZM101.5 270.5H124.5V247.5H101.5V270.5ZM125.5 270.5H148.5V247.5H125.5V270.5ZM149.5 270.5H172.5V247.5H149.5V270.5ZM173.5 270.5H196.5V247.5H173.5V270.5ZM197.5 270.5H220.5V247.5H197.5V270.5ZM221.5 270.5H244.5V247.5H221.5V270.5ZM245.5 270.5H268.5V247.5H245.5V270.5ZM269.5 270.5H292.5V247.5H269.5V270.5ZM293.5 270.5H316.5V247.5H293.5V270.5ZM317.5 270.5H340.5V247.5H317.5V270.5ZM341.5 270.5H364.5V247.5H341.5V270.5ZM365.5 270.5H388.5V247.5H365.5V270.5ZM5.5 246.5H28.5V223.5H5.5V246.5ZM29.5 246.5H52.5V223.5H29.5V246.5ZM53.5 246.5H76.5V223.5H53.5V246.5ZM77.5 246.5H100.5V223.5H77.5V246.5ZM101.5 246.5H124.5V223.5H101.5V246.5ZM125.5 246.5H148.5V223.5H125.5V246.5ZM149.5 246.5H172.5V223.5H149.5V246.5ZM173.5 246.5H196.5V223.5H173.5V246.5ZM197.5 246.5H220.5V223.5H197.5V246.5ZM221.5 246.5H244.5V223.5H221.5V246.5ZM245.5 246.5H268.5V223.5H245.5V246.5ZM269.5 246.5H292.5V223.5H269.5V246.5ZM293.5 246.5H316.5V223.5H293.5V246.5ZM317.5 246.5H340.5V223.5H317.5V246.5ZM341.5 246.5H364.5V223.5H341.5V246.5ZM365.5 246.5H388.5V223.5H365.5V246.5ZM5.5 222.5H28.5V199.5H5.5V222.5ZM29.5 222.5H52.5V199.5H29.5V222.5ZM53.5 222.5H76.5V199.5H53.5V222.5ZM77.5 222.5H100.5V199.5H77.5V222.5ZM101.5 222.5H124.5V199.5H101.5V222.5ZM125.5 222.5H148.5V199.5H125.5V222.5ZM149.5 222.5H172.5V199.5H149.5V222.5ZM173.5 222.5H196.5V199.5H173.5V222.5ZM197.5 222.5H220.5V199.5H197.5V222.5ZM221.5 222.5H244.5V199.5H221.5V222.5ZM245.5 222.5H268.5V199.5H245.5V222.5ZM269.5 222.5H292.5V199.5H269.5V222.5ZM293.5 222.5H316.5V199.5H293.5V222.5ZM317.5 222.5H340.5V199.5H317.5V222.5ZM341.5 222.5H364.5V199.5H341.5V222.5ZM365.5 222.5H388.5V199.5H365.5V222.5ZM5.5 198.5H28.5V175.5H5.5V198.5ZM29.5 198.5H52.5V175.5H29.5V198.5ZM53.5 198.5H76.5V175.5H53.5V198.5ZM77.5 198.5H100.5V175.5H77.5V198.5ZM101.5 198.5H124.5V175.5H101.5V198.5ZM125.5 198.5H148.5V175.5H125.5V198.5ZM149.5 198.5H172.5V175.5H149.5V198.5ZM173.5 198.5H196.5V175.5H173.5V198.5ZM197.5 198.5H220.5V175.5H197.5V198.5ZM221.5 198.5H244.5V175.5H221.5V198.5ZM245.5 198.5H268.5V175.5H245.5V198.5ZM269.5 198.5H292.5V175.5H269.5V198.5ZM293.5 198.5H316.5V175.5H293.5V198.5ZM317.5 198.5H340.5V175.5H317.5V198.5ZM341.5 198.5H364.5V175.5H341.5V198.5ZM365.5 198.5H388.5V175.5H365.5V198.5ZM5.5 174.5H28.5V151.5H5.5V174.5ZM29.5 174.5H52.5V151.5H29.5V174.5ZM53.5 174.5H76.5V151.5H53.5V174.5ZM77.5 174.5H100.5V151.5H77.5V174.5ZM101.5 174.5H124.5V151.5H101.5V174.5ZM125.5 174.5H148.5V151.5H125.5V174.5ZM149.5 174.5H172.5V151.5H149.5V174.5ZM173.5 174.5H196.5V151.5H173.5V174.5ZM197.5 174.5H220.5V151.5H197.5V174.5ZM221.5 174.5H244.5V151.5H221.5V174.5ZM245.5 174.5H268.5V151.5H245.5V174.5ZM269.5 174.5H292.5V151.5H269.5V174.5ZM293.5 174.5H316.5V151.5H293.5V174.5ZM317.5 174.5H340.5V151.5H317.5V174.5ZM341.5 174.5H364.5V151.5H341.5V174.5ZM365.5 174.5H388.5V151.5H365.5V174.5ZM5.5 150.5H28.5V127.5H5.5V150.5ZM29.5 150.5H52.5V127.5H29.5V150.5ZM53.5 150.5H76.5V127.5H53.5V150.5ZM77.5 150.5H100.5V127.5H77.5V150.5ZM101.5 150.5H124.5V127.5H101.5V150.5ZM125.5 150.5H148.5V127.5H125.5V150.5ZM149.5 150.5H172.5V127.5H149.5V150.5ZM173.5 150.5H196.5V127.5H173.5V150.5ZM197.5 150.5H220.5V127.5H197.5V150.5ZM221.5 150.5H244.5V127.5H221.5V150.5ZM245.5 150.5H268.5V127.5H245.5V150.5ZM269.5 150.5H292.5V127.5H269.5V150.5ZM293.5 150.5H316.5V127.5H293.5V150.5ZM317.5 150.5H340.5V127.5H317.5V150.5ZM341.5 150.5H364.5V127.5H341.5V150.5ZM365.5 150.5H388.5V127.5H365.5V150.5ZM5.5 126.5H28.5V103.5H5.5V126.5ZM29.5 126.5H52.5V103.5H29.5V126.5ZM53.5 126.5H76.5V103.5H53.5V126.5ZM77.5 126.5H100.5V103.5H77.5V126.5ZM101.5 126.5H124.5V103.5H101.5V126.5ZM125.5 126.5H148.5V103.5H125.5V126.5ZM149.5 126.5H172.5V103.5H149.5V126.5ZM173.5 126.5H196.5V103.5H173.5V126.5ZM197.5 126.5H220.5V103.5H197.5V126.5ZM221.5 126.5H244.5V103.5H221.5V126.5ZM245.5 126.5H268.5V103.5H245.5V126.5ZM269.5 126.5H292.5V103.5H269.5V126.5ZM293.5 126.5H316.5V103.5H293.5V126.5ZM317.5 126.5H340.5V103.5H317.5V126.5ZM341.5 126.5H364.5V103.5H341.5V126.5ZM365.5 126.5H388.5V103.5H365.5V126.5ZM5.5 102.5H28.5V79.5H5.5V102.5ZM29.5 102.5H52.5V79.5H29.5V102.5ZM53.5 102.5H76.5V79.5H53.5V102.5ZM77.5 102.5H100.5V79.5H77.5V102.5ZM101.5 102.5H124.5V79.5H101.5V102.5ZM125.5 102.5H148.5V79.5H125.5V102.5ZM149.5 102.5H172.5V79.5H149.5V102.5ZM173.5 102.5H196.5V79.5H173.5V102.5ZM197.5 102.5H220.5V79.5H197.5V102.5ZM221.5 102.5H244.5V79.5H221.5V102.5ZM245.5 102.5H268.5V79.5H245.5V102.5ZM269.5 102.5H292.5V79.5H269.5V102.5ZM293.5 102.5H316.5V79.5H293.5V102.5ZM317.5 102.5H340.5V79.5H317.5V102.5ZM341.5 102.5H364.5V79.5H341.5V102.5ZM365.5 102.5H388.5V79.5H365.5V102.5ZM5.5 78.5H28.5V55.5H5.5V78.5ZM29.5 78.5H52.5V55.5H29.5V78.5ZM53.5 78.5H76.5V55.5H53.5V78.5ZM77.5 78.5H100.5V55.5H77.5V78.5ZM101.5 78.5H124.5V55.5H101.5V78.5ZM125.5 78.5H148.5V55.5H125.5V78.5ZM149.5 78.5H172.5V55.5H149.5V78.5ZM173.5 78.5H196.5V55.5H173.5V78.5ZM197.5 78.5H220.5V55.5H197.5V78.5ZM221.5 78.5H244.5V55.5H221.5V78.5ZM245.5 78.5H268.5V55.5H245.5V78.5ZM269.5 78.5H292.5V55.5H269.5V78.5ZM293.5 78.5H316.5V55.5H293.5V78.5ZM317.5 78.5H340.5V55.5H317.5V78.5ZM341.5 78.5H364.5V55.5H341.5V78.5ZM365.5 78.5H388.5V55.5H365.5V78.5ZM5.5 54.5H28.5V31.5H5.5V54.5ZM29.5 54.5H52.5V31.5H29.5V54.5ZM53.5 54.5H76.5V31.5H53.5V54.5ZM77.5 54.5H100.5V31.5H77.5V54.5ZM101.5 54.5H124.5V31.5H101.5V54.5ZM125.5 54.5H148.5V31.5H125.5V54.5ZM149.5 54.5H172.5V31.5H149.5V54.5ZM173.5 54.5H196.5V31.5H173.5V54.5ZM197.5 54.5H220.5V31.5H197.5V54.5ZM221.5 54.5H244.5V31.5H221.5V54.5ZM245.5 54.5H268.5V31.5H245.5V54.5ZM269.5 54.5H292.5V31.5H269.5V54.5ZM293.5 54.5H316.5V31.5H293.5V54.5ZM317.5 54.5H340.5V31.5H317.5V54.5ZM341.5 54.5H364.5V31.5H341.5V54.5ZM365.5 54.5H388.5V31.5H365.5V54.5Z" fill="url(#paint0_linear_43_4128)"/>
<defs>
<linearGradient id="paint0_linear_43_4128" x1="196.5" y1="0" x2="196.5" y2="445" gradientUnits="userSpaceOnUse">
<stop stop-color="#F0F0F0"/>
<stop offset="1" stop-color="white" stop-opacity="0"/>
</linearGradient>
</defs>
</svg>
